<svg xmlns="http://www.w3.org/2000/svg" viewBox="0 0 512 512" fill="none">
  <rect width="512" height="512" rx="128" fill="#070B1F"/>
  <path d="M256 64 L384 112 V240 C384 336 320 416 256 448 C192 416 128 336 128 240 V112 L256 64 Z" fill="url(#shield_grad)" stroke="#818CF8" stroke-width="12"/>
  <path d="M256 160 C211.8 160 176 195.8 176 240 C176 284.2 211.8 320 256 320 C300.2 320 336 284.2 336 240 C336 195.8 300.2 160 256 160 Z" stroke="#C084FC" stroke-width="10" stroke-dasharray="16 8"/>
  <circle cx="256" cy="240" r="32" fill="#7C5CFF"/>
  <path d="M224 240 L248 264 L288 224" stroke="#FFFFFF" stroke-width="12" stroke-linecap="round" stroke-linejoin="round"/>
  <defs>
    <linearGradient id="shield_grad" x1="256" y1="64" x2="256" y2="448" gradientUnits="userSpaceOnUse">
      <stop stop-color="#5B3DF5"/>
      <stop offset="1" stop-color="#1E1B4B"/>
    </linearGradient>
  </defs>
</svg>